<?xml version="1.0" encoding="UTF-8" standalone="no"?>
<!-- Created with Inkscape (http://www.inkscape.org/) -->

<svg
   width="50mm"
   height="50mm"
   viewBox="0 0 50 50"
   version="1.1"
   id="svg1"
   xml:space="preserve"
   inkscape:version="1.3.1 (9b9bdc1480, 2023-11-25, custom)"
   sodipodi:docname="logo.svg"
   xmlns:inkscape="http://www.inkscape.org/namespaces/inkscape"
   xmlns:sodipodi="http://sodipodi.sourceforge.net/DTD/sodipodi-0.dtd"
   xmlns="http://www.w3.org/2000/svg"
   xmlns:svg="http://www.w3.org/2000/svg"><sodipodi:namedview
     id="namedview1"
     pagecolor="#ffffff"
     bordercolor="#000000"
     borderopacity="0.25"
     inkscape:showpageshadow="2"
     inkscape:pageopacity="0.0"
     inkscape:pagecheckerboard="0"
     inkscape:deskcolor="#d1d1d1"
     inkscape:document-units="mm"
     inkscape:zoom="2.7064519"
     inkscape:cx="22.908221"
     inkscape:cy="151.48985"
     inkscape:window-width="1920"
     inkscape:window-height="1131"
     inkscape:window-x="0"
     inkscape:window-y="0"
     inkscape:window-maximized="1"
     inkscape:current-layer="layer1"
     showgrid="false" /><defs
     id="defs1"><style
       id="style1">.cls-1{fill:#1a1a1a}.cls-2{fill:#4d64ae}.cls-3{fill:#ca3c32}.cls-4{fill:#9259a3}.cls-5{fill:#399746}</style></defs><g
     inkscape:label="Ebene 1"
     inkscape:groupmode="layer"
     id="layer1"><g
       style="fill:#399746;fill-opacity:1"
       id="g2"
       transform="matrix(0.05923387,0,0,0.05923387,13.99994,1.1804057)"><g
         id="g1"
         style="fill:#399746;fill-opacity:1">
	<path
   d="M 270.265,149.448 C 229.7055,100.59819 220.41152,88.985729 196.826,8.076 195.93587,5.0224116 193.04375,0.64041489 190.85132,0.63598634 188.65888,0.6315578 181.11374,9.617875 178.28158,12.832147 103.27117,97.963013 -25.941,301.836 138.075,362.423 c 74.052,27.541 157.896,-9.791 172.584,-90.576 7.955,-43.451 -13.64864,-90.18693 -40.394,-122.399 z M 138.686,323.256 c -17.64047,-10.5853 -30.54812,-34.56768 -34.272,-49.572 -2.28855,-9.22104 -3.58668,-18.35371 -3.06,-27.539 0.31546,-5.50161 2.8849,-29.988 14.076,-46.512 3.06,13.463 9.0341,27.05762 17.748,36.719 19.43952,21.5532 58.87184,15.61726 70.38,61.201 4.36734,17.29901 -19.31661,31.52992 -30.6,34.271 -11.8147,2.87015 -24.37089,-2.62676 -34.272,-8.568 z"
   id="path1"
   style="fill:#399746;fill-opacity:1"
   sodipodi:nodetypes="sszsccsssscssss" />
</g></g><path
       d="m 32.965787,34.543937 c -0.250901,0 -0.45431,0.203349 -0.45431,0.45431 0,0.250961 0.203409,0.45431 0.45431,0.45431 1.837048,0 3.331607,1.494559 3.331607,3.331608 0,0.250961 0.20341,0.45431 0.45431,0.45431 0.250901,0 0.45431,-0.203349 0.45431,-0.45431 0,-2.338062 -1.902166,-4.240228 -4.240227,-4.240228 z"
       id="path2"
       style="fill:#9259a3;fill-opacity:1;stroke-width:0.0605747" /><path
       d="m 44.495874,33.571592 c -0.898928,0 -1.630246,-0.731318 -1.630246,-1.630246 0,-0.250961 -0.20341,-0.45431 -0.45431,-0.45431 -0.250901,0 -0.45431,0.203349 -0.45431,0.45431 0,1.399941 1.138925,2.538867 2.538866,2.538867 0.250901,0 0.45431,-0.20335 0.45431,-0.454311 0,-0.25096 -0.203409,-0.45431 -0.45431,-0.45431 z"
       id="path4"
       style="fill:#9259a3;fill-opacity:1;stroke-width:0.0605747" /><circle
       style="fill:none;fill-opacity:1;stroke:#9259a3;stroke-width:2.2;stroke-dasharray:none;stroke-opacity:1;stroke-dashoffset:0"
       id="path6"
       cx="32.965797"
       cy="38.784195"
       r="6.1362591" /><circle
       style="fill:none;fill-opacity:1;stroke:#9259a3;stroke-width:1.4;stroke-dasharray:none;stroke-dashoffset:0;stroke-opacity:1"
       id="path6-8"
       cx="44.273022"
       cy="32.164108"
       r="3.489234" /><circle
       style="fill:none;fill-opacity:1;stroke:#9259a3;stroke-width:1.4;stroke-dasharray:none;stroke-dashoffset:0;stroke-opacity:1"
       id="path6-8-2"
       cx="33.673965"
       cy="27.158611"
       r="2.5492911" /><path
       style="fill:none;fill-opacity:1;stroke:#ca3c32;stroke-width:2.5;stroke-linecap:round;stroke-dasharray:none;stroke-dashoffset:0;stroke-opacity:1"
       d="m 9.6838171,24.895933 c -0.3713308,1.360096 -0.4031826,4.298238 0.2642485,5.981827 0.8094874,2.041925 1.6822754,3.290438 2.8590574,4.446338 1.221112,1.199444 2.249034,3.233129 2.557769,4.663606 0.247147,1.145117 0.385306,3.569941 -0.183902,5.140043"
       id="path7"
       sodipodi:nodetypes="csssc" /><path
       style="fill:none;fill-opacity:1;stroke:#ca3c32;stroke-width:2.5;stroke-linecap:round;stroke-dasharray:none;stroke-dashoffset:0;stroke-opacity:1"
       d="m 3.2610371,26.353334 c -0.3713308,1.360096 -0.2238497,3.639641 0.3804992,5.34689 0.3905534,1.103289 0.9828675,2.029448 2.052156,3.027597 1.2512326,1.167989 2.0339195,2.494632 2.3426545,3.925109 0.247147,1.145117 0.4587876,2.947569 -0.1104204,4.517671 m 2.4706436,1.649745"
       id="path7-2"
       sodipodi:nodetypes="csssc" /><path
       style="fill:none;fill-opacity:1;stroke:#ca3c32;stroke-width:2.5;stroke-linecap:round;stroke-dasharray:none;stroke-dashoffset:0;stroke-opacity:1"
       d="m 16.997874,26.353334 c -0.371331,1.360096 -0.22385,3.639641 0.380499,5.34689 0.390554,1.103289 0.982868,2.029448 2.052156,3.027597 1.251233,1.167989 2.03392,2.494632 2.342655,3.925109 0.247147,1.145117 0.458787,2.947569 -0.110421,4.517671 m 2.470644,1.649745"
       id="path7-2-3"
       sodipodi:nodetypes="csssc"
       inkscape:transform-center-x="-2.1987781"
       inkscape:transform-center-y="6.4549345" /></g></svg>
